<?xml version="1.0" encoding="UTF-8" standalone="no"?>
<svg width="144px" height="144px" viewBox="0 0 144 144" version="1.1" xmlns="http://www.w3.org/2000/svg" xmlns:xlink="http://www.w3.org/1999/xlink" xmlns:sketch="http://www.bohemiancoding.com/sketch/ns">
    <!-- Generator: Sketch 3.2.2 (9983) - http://www.bohemiancoding.com/sketch -->
    <title>144 - iPad App Icon@1x</title>
    <desc>Created with Sketch.</desc>
    <defs>
        <circle id="path-1" cx="72" cy="72" r="72"></circle>
    </defs>
    <g id="LOGO" stroke="none" stroke-width="1" fill="none" fill-rule="evenodd" sketch:type="MSPage">
        <g id="144---iPad-App-Icon" sketch:type="MSArtboardGroup">
            <g id="Oval-21-+-V-3" sketch:type="MSLayerGroup">
                <mask id="mask-2" sketch:name="Oval 21" fill="white">
                    <use xlink:href="#path-1"></use>
                </mask>
                <use id="Oval-21" fill="#E9E7DA" sketch:type="MSShapeGroup" xlink:href="#path-1"></use>
                <path d="M-14,-3 L-6.74795354,-3 L50.5246185,141.764847 L107.797191,-3 L114.956262,-3 L54.1506417,150.772025 C54.1506417,150.772025 53.3060488,152.766878 50.5246185,152.766878 C47.7431882,152.766878 46.8985953,150.772025 46.8985953,150.772025 L-14,-3 Z M55.1733662,117.343324 L51.3613931,125.886214 L0.41111796,-3 L7.57018946,-3 L55.1733662,117.343324 Z M62.3324377,99.0503957 L58.7993894,108.243289 L14.8222359,-3 L22.0742824,-3 L62.3324377,99.0503957 Z M69.3985343,80.4788951 L65.865486,89.8575029 L29.2333539,-3 L36.3924254,-3 L69.3985343,80.4788951 Z M150.937569,-3 L158.189616,-3 L97.2910206,150.772025 C97.2910206,150.772025 94.9617867,152.945312 92.3945158,152.945312 C89.8272448,152.945312 90.1319491,150.772025 90.1319491,150.772025 L150.937569,-3 Z M136.619426,-3 L143.778498,-3 L82.8799027,150.772025 C82.8799027,150.772025 80.9168633,152.888332 78.1548733,152.888332 C75.3928832,152.888332 75.7208312,150.772025 75.7208312,150.772025 L136.619426,-3 Z M122.115334,-3 L129.36738,-3 L68.4687847,150.772025 C68.4687847,150.772025 66.6314728,152.84127 64.0016551,152.84127 C61.3718374,152.84127 61.3097132,150.772025 61.3097132,150.772025 L122.115334,-3 Z" id="V-4" fill="#FEFDF4" sketch:type="MSShapeGroup" mask="url(#mask-2)"></path>
            </g>
        </g>
    </g>
</svg>